<?xml version="1.0" encoding="UTF-8" standalone="no"?>
<!DOCTYPE svg PUBLIC "-//W3C//DTD SVG 1.1//EN" "http://www.w3.org/Graphics/SVG/1.1/DTD/svg11.dtd">
<svg width="100%" height="100%" viewBox="0 0 533 354" version="1.1" xmlns="http://www.w3.org/2000/svg" xmlns:xlink="http://www.w3.org/1999/xlink" xml:space="preserve" xmlns:serif="http://www.serif.com/" style="fill-rule:evenodd;clip-rule:evenodd;stroke-linecap:round;stroke-linejoin:round;stroke-miterlimit:1.5;">
    <g transform="matrix(1,0,0,1,-173.514,-144.5)">
        <g>
            <g transform="matrix(0.415449,-0.625739,0.469558,0.311755,332.129,425.517)">
                <path d="M221.115,496.04C233.89,496.04 244.262,507.988 244.262,540.71C244.262,573.433 221.115,600 221.115,600C221.115,600 197.968,573.433 197.968,540.71C197.968,507.988 208.34,496.04 221.115,496.04Z" style="fill:rgb(255,57,0);"/>
                <path d="M188.766,522.106C176.568,506.711 168.729,482.814 168.729,456.003C168.729,409.608 192.202,371.941 221.115,371.941C250.028,371.941 273.501,409.608 273.501,456.003C273.501,482.814 265.662,506.711 253.464,522.106C247.976,483.191 235.55,456.003 221.115,456.003C206.68,456.003 194.254,483.191 188.766,522.106Z" style="fill:rgb(255,115,0);"/>
            </g>
            <g transform="matrix(0.5,-0.866025,0.866025,0.5,-51.1632,491.383)">
                <g transform="matrix(0.800889,0,0,1.2927,79.6444,-25.0514)">
                    <path d="M400,85.588C456.844,85.588 481.719,225.231 481.719,300C481.719,343.285 484.414,430.298 400,430C315.586,429.702 318.281,342.707 318.281,300C318.281,225.231 343.156,85.588 400,85.588Z" style="fill:rgb(255,0,0);stroke:black;stroke-width:0.93px;"/>
                </g>
                <g transform="matrix(0.800889,5.55112e-17,0,1.2927,79.6444,-25.0514)">
                    <path d="M400,85.588C401.332,85.588 400,85.588 400,85.588C400,85.588 346.769,313.142 385.616,378.949C403.601,409.416 443.832,419.033 443.832,419.033C443.832,419.033 445.44,418.028 443.832,419.033C432.763,425.953 418.466,430.065 400,430C315.586,429.702 318.281,342.707 318.281,300C318.281,225.231 343.156,85.588 400,85.588Z" style="fill-opacity:0.37;"/>
                </g>
                <g transform="matrix(1,0,0,1.2927,0,-25.0514)">
                    <path d="M349.079,169.548C359.712,123.043 376.422,85.588 400,85.588C423.578,85.588 440.288,123.043 450.921,169.548C435.999,176.188 418.588,180 400,180C381.412,180 364.001,176.188 349.079,169.548Z" style="stroke:black;stroke-width:0.87px;"/>
                </g>
                <g transform="matrix(1,0,0,4.07692,0,-125.577)">
                    <rect x="398" y="40" width="4" height="13" style="stroke:black;stroke-width:0.34px;"/>
                </g>
                <circle cx="400" cy="36" r="6" style="stroke:black;stroke-width:1px;"/>
                <g transform="matrix(1.78109,0,0,1.9827,-389.92,-295.495)">
                    <path d="M392.974,386.741C398.319,373.497 405.594,361.925 414.275,352.748C416.682,373.404 422.293,391.609 430,405.149C415.972,409.68 403.367,417.019 392.974,426.437L392.974,386.741ZM494,426.437C483.607,417.019 471.002,409.68 456.974,405.149C464.682,391.608 470.293,373.401 472.698,352.748C481.38,361.925 488.655,373.497 494,386.741L494,426.437Z" style="stroke:black;stroke-width:0.53px;"/>
                </g>
            </g>
            <g transform="matrix(1.20673,0.867097,-0.177508,0.247036,284.105,4.55551)">
                <path d="M125.482,443.637C128.039,393.12 167.479,352.934 215.689,352.934C263.898,352.934 303.339,393.12 305.896,443.637C286.224,412.084 253.147,391.362 215.689,391.362C178.231,391.362 145.154,412.084 125.482,443.637Z" style="fill:white;fill-opacity:0.27;"/>
            </g>
            <g>
                <g transform="matrix(-0.525909,-0.771271,0.36719,-0.250377,548.581,631.329)">
                    <path d="M462.267,207.941C475.54,202.785 555.289,180.403 565.996,189.477C577.578,199.293 532.312,203.476 532.312,217.511C532.312,224.711 520.891,217.703 509.113,216.557C497.93,215.468 486.359,220.411 486.359,220.411" style="fill:rgb(47,111,194);stroke:black;stroke-width:1.37px;"/>
                </g>
                <path d="M635,225C634.779,227.704 632.522,280.123 571.214,293.471C560.304,295.846 549.431,296.11 539.146,295.612C523.44,285.518 507.978,276.75 495.718,269.672C488.593,265.558 480.871,261.266 472.703,256.887C471.271,256.009 459.563,252.751 450,260C439.7,267.807 411.003,285.795 370,270C358.722,265.656 303.357,241.599 325,185C334.412,160.386 368.126,145 395,145C424.167,145 480.615,161.917 500,185C547.332,241.36 595.964,234.216 620,225C606.914,221.471 597.555,205.501 595,195.371C602.056,203.648 605.774,209.308 615.573,209.5C622.514,209.636 625,215 625,215C625,215 622.997,210.707 626,207.532C626.691,206.802 661.4,172.598 661.829,151.319C663.867,158.414 665,166.278 665,174.552C665,196.452 635.238,222.08 635,225Z" style="fill:rgb(47,111,194);stroke:black;stroke-width:1px;"/>
                <path d="M444,208C462.789,206.913 481.691,221.007 496,230C515.393,242.188 531.035,261.75 547,268C581.024,281.319 609.435,269.93 628.958,249.225C621.781,265.738 606.006,285.896 571.214,293.471C560.304,295.846 549.431,296.11 539.146,295.612C523.44,285.518 507.978,276.75 495.718,269.672C488.593,265.558 480.871,261.266 472.703,256.887C471.271,256.009 459.563,252.751 450,260C439.7,267.807 411.003,285.795 370,270C361.007,266.536 323.981,250.537 320.321,215.495C334.094,225.323 354.909,237 375,237C400.288,237 423.833,209.167 444,208Z" style="fill:rgb(207,218,225);stroke:black;stroke-width:0.39px;"/>
                <path d="M397.875,276.175C388.01,269.543 378.835,260.555 370.161,249.858C386.159,263.287 401.257,272.114 415.229,275.193C409.918,276.097 404.122,276.511 397.875,276.175ZM366.953,268.763C361.45,261.355 356.357,253.135 351.594,244.262C360.341,255.556 369.018,265.088 377.616,272.598C375.126,271.859 372.587,270.997 370,270C369.194,269.69 368.163,269.279 366.953,268.763ZM433.968,269.495C423.313,266.136 413.51,258.768 404.284,248.682C420.341,259.369 435.168,264.13 448.393,261.188C444.986,263.643 440.132,266.743 433.968,269.495ZM342.847,254.333C340.602,251.109 338.421,247.748 336.295,244.262C343.331,251.896 350.314,258.518 357.241,264.021C352.762,261.547 347.73,258.343 342.847,254.333Z" style="fill-opacity:0.19;"/>
                <g transform="matrix(0.906274,0.42269,-0.523529,1.12248,122.997,-159.273)">
                    <ellipse cx="329.197" cy="177.435" rx="6.009" ry="7.435" style="fill:rgb(209,220,227);stroke:black;stroke-width:0.85px;"/>
                </g>
                <g transform="matrix(1.33275,0.621602,-0.523529,1.12248,49.0697,-223.797)">
                    <ellipse cx="329.197" cy="177.435" rx="6.009" ry="7.435" style="fill:rgb(209,220,227);stroke:black;stroke-width:0.71px;"/>
                </g>
                <path d="M350.162,203.759C384.657,203.759 436.095,209.644 436.095,209.644C436.095,209.644 391.777,240.189 357.282,240.189C322.787,240.189 320.321,215.498 320.321,215.498C320.321,215.498 315.667,203.759 350.162,203.759Z" style="fill:white;stroke:black;stroke-width:0.96px;"/>
                <path d="M351.084,203.761C353.432,203.768 355.855,203.801 358.328,203.857L358.328,240.18C357.98,240.186 357.63,240.189 357.282,240.189C355.919,240.189 354.607,240.151 353.346,240.077L351.084,203.761ZM362.234,203.962C364.531,204.034 366.864,204.123 369.216,204.226L370.43,238.903C367.672,239.409 364.932,239.781 362.234,239.991L362.234,203.962ZM347.172,203.79L349.41,239.717C347.047,239.417 344.874,238.985 342.875,238.445L341.091,204.077C342.951,203.934 344.974,203.836 347.172,203.79ZM374.529,204.481C376.096,204.563 377.665,204.65 379.236,204.742L379.236,236.873C378.056,237.197 376.875,237.502 375.695,237.785L374.529,204.481ZM335.083,204.764L336.715,236.221C336.066,235.92 335.443,235.606 334.844,235.28L331.843,205.381C332.838,205.156 333.916,204.949 335.083,204.764ZM385.439,205.128C386.927,205.226 388.408,205.327 389.881,205.432L388.048,234.114C387.182,234.417 386.312,234.712 385.439,234.999L385.439,205.128ZM392.525,205.622C393.861,205.72 395.186,205.82 396.495,205.921L394.837,231.565C393.492,232.103 392.135,232.627 390.767,233.134L392.525,205.622ZM328.102,206.431L330.728,232.611C328.824,231.144 327.264,229.571 325.988,227.995L324.364,208.116C325.365,207.523 326.595,206.953 328.102,206.431ZM400.845,206.266C401.945,206.355 403.033,206.445 404.104,206.535L403.233,227.963C401.951,228.548 400.648,229.127 399.33,229.696L400.845,206.266ZM408.458,206.909C409.281,206.981 410.093,207.053 410.895,207.125L409.879,224.79C409.157,225.149 408.425,225.509 407.687,225.866L408.458,206.909ZM321.555,210.421L322.547,222.565C320.629,218.58 320.321,215.498 320.321,215.498C320.321,215.498 319.358,213.069 321.555,210.421ZM415.474,207.544C416.414,207.632 417.332,207.718 418.225,207.803L416.993,221.099C416.219,221.517 415.428,221.939 414.621,222.363L415.474,207.544ZM421.198,208.091C422.023,208.171 422.822,208.25 423.59,208.327L422.474,218.053C421.724,218.482 420.95,218.92 420.154,219.364L421.198,208.091ZM428.162,208.791C433.137,209.305 436.095,209.644 436.095,209.644C436.095,209.644 432.85,211.88 427.433,215.143L428.162,208.791Z" style="fill:rgb(188,188,188);"/>
                <path d="M350.162,203.759C384.657,203.759 436.095,209.644 436.095,209.644C436.095,209.644 391.777,240.189 357.282,240.189C322.787,240.189 320.321,215.498 320.321,215.498C320.321,215.498 315.667,203.759 350.162,203.759Z" style="fill:none;stroke:black;stroke-width:0.96px;"/>
                <path d="M635,225C635,225 632.522,280.123 571.214,293.471C560.304,295.846 549.431,296.11 539.146,295.612C523.44,285.518 507.978,276.75 495.718,269.672C488.593,265.558 480.871,261.266 472.703,256.887C471.271,256.009 459.563,252.751 450,260C439.7,267.807 411.003,285.795 370,270C359.251,265.859 308.451,243.811 322.452,192.746C322.479,192.646 322.452,192.746 322.452,192.746C335.821,266.112 455.756,206.173 492.515,236.406C517.698,257.118 571.999,277.472 595.746,275.571C617.017,273.868 635,225 635,225Z" style="fill-opacity:0.26;"/>
                <g transform="matrix(0.972478,-0.232995,-0.177978,-0.742846,64.9789,478.196)">
                    <path d="M462.267,207.941C475.54,202.785 555.289,180.403 565.996,189.477C577.578,199.293 532.312,203.476 532.312,217.511C532.312,224.711 520.891,217.703 509.113,216.557C497.93,215.468 486.359,220.411 486.359,220.411" style="fill:rgb(47,111,194);stroke:black;stroke-width:1.12px;"/>
                </g>
                <g transform="matrix(0.473742,0,0,0.473742,193.7,107.925)">
                    <circle cx="279.772" cy="149.248" r="4.248"/>
                </g>
                <g transform="matrix(0.473742,0,0,0.473742,263.8,107.925)">
                    <circle cx="279.772" cy="149.248" r="4.248"/>
                </g>
            </g>
            <g transform="matrix(1,0,0,0.596831,0,70.1983)">
                <ellipse cx="398.201" cy="177.058" rx="3.286" ry="2.942" style="fill:white;fill-opacity:0.89;"/>
            </g>
            <g transform="matrix(1,0,0,0.596831,-68.458,70.1983)">
                <ellipse cx="398.201" cy="177.058" rx="3.286" ry="2.942" style="fill:white;fill-opacity:0.89;"/>
            </g>
            <path d="M442.187,157.217C463.764,162.999 503.469,193.902 502.159,197.138C500.85,200.373 462.506,177.773 441.298,172.227C381.725,156.649 353.445,165.841 354.755,162.606C356.065,159.371 386.722,142.353 442.187,157.217Z" style="fill:white;fill-opacity:0.27;"/>
            <g transform="matrix(-0.422547,0.230324,-0.20002,-0.366953,635.1,225.352)">
                <path d="M442.187,157.217C463.764,162.999 503.469,193.902 502.159,197.138C500.85,200.373 462.506,177.773 441.298,172.227C381.725,156.649 353.445,165.841 354.755,162.606C356.065,159.371 386.722,142.353 442.187,157.217Z" style="fill:white;fill-opacity:0.27;"/>
            </g>
            <g transform="matrix(-0.444361,0.23811,-0.184356,-0.344045,798.608,234.584)">
                <path d="M442.187,157.217C463.764,162.999 503.469,193.902 502.159,197.138C500.85,200.373 462.506,177.773 441.298,172.227C381.725,156.649 353.445,165.841 354.755,162.606C356.065,159.371 386.722,142.353 442.187,157.217Z" style="fill:white;fill-opacity:0.27;"/>
            </g>
            <g transform="matrix(-0.106836,0.206921,-0.29902,-0.154388,696.846,343.117)">
                <path d="M442.187,157.217C463.764,162.999 503.469,193.902 502.159,197.138C500.85,200.373 462.506,177.773 441.298,172.227C381.725,156.649 353.445,165.841 354.755,162.606C356.065,159.371 386.722,142.353 442.187,157.217Z" style="fill:white;fill-opacity:0.27;"/>
            </g>
            <g transform="matrix(0.236376,-0.327516,1.17268,0.846353,-36.9893,191.234)">
                <path d="M442.187,157.217C463.764,162.999 503.469,193.902 502.159,197.138C500.85,200.373 462.506,177.773 441.298,172.227C381.725,156.649 353.445,165.841 354.755,162.606C356.065,159.371 386.722,142.353 442.187,157.217Z" style="fill:white;fill-opacity:0.27;"/>
            </g>
            <g transform="matrix(-0.143151,0.252864,-0.0743726,-0.0421038,712.015,156.815)">
                <path d="M125.482,443.637C128.039,393.12 167.479,352.934 215.689,352.934C263.898,352.934 303.339,393.12 305.896,443.637C286.224,412.084 253.147,391.362 215.689,391.362C178.231,391.362 145.154,412.084 125.482,443.637Z" style="fill:white;fill-opacity:0.27;"/>
            </g>
        </g>
    </g>
</svg>
